<?xml version="1.0" encoding="UTF-8"?>
<svg version="1.1" xmlns="http://www.w3.org/2000/svg" width="800" height="800">
<path d="M0 0 C1.26345387 -0.00350607 2.52690774 -0.00701215 3.82864809 -0.01062447 C7.34423812 -0.02008774 10.8597246 -0.01708013 14.37531975 -0.01206893 C18.19683157 -0.0088051 22.01832112 -0.01708249 25.83982587 -0.02388728 C32.54048961 -0.03420185 39.24112445 -0.03702854 45.94179535 -0.03497505 C55.90600726 -0.03192885 65.87018712 -0.04024059 75.83439281 -0.0507243 C94.66497683 -0.07008267 113.49554997 -0.07569321 132.32614276 -0.07683842 C146.86634473 -0.07775693 161.40654243 -0.0818706 175.94674301 -0.08823967 C180.12966195 -0.09003471 184.3125809 -0.09181434 188.49549985 -0.09358943 C189.53533869 -0.09403152 190.57517753 -0.09447362 191.64652664 -0.09492911 C220.90192393 -0.10724037 250.15731973 -0.11512995 279.41271973 -0.11424255 C280.5160852 -0.1142114 281.61945067 -0.11418024 282.75625146 -0.11414814 C288.34877264 -0.11398192 293.94129382 -0.11378384 299.533815 -0.11357872 C301.19990546 -0.11351889 301.19990546 -0.11351889 302.89965433 -0.11345784 C305.14581575 -0.11337697 307.39197717 -0.11329337 309.6381386 -0.11320706 C344.58834138 -0.11198142 379.53850537 -0.12699588 414.48869705 -0.15435219 C453.740349 -0.18506257 492.99197546 -0.20228531 532.24364018 -0.20042574 C536.42781655 -0.20027648 540.61199291 -0.20017907 544.79616928 -0.20011711 C545.82644631 -0.2000938 546.85672333 -0.20007049 547.91822088 -0.20004648 C564.50973279 -0.19998489 581.10121106 -0.21276546 597.69271297 -0.22998164 C614.36309624 -0.24692209 631.03343022 -0.24892442 647.70381734 -0.235763 C657.61096146 -0.22836324 667.51795597 -0.23206239 677.42508429 -0.25164768 C684.04146047 -0.2636238 690.657728 -0.26108304 697.27409915 -0.24670668 C701.04484588 -0.2389236 704.81530256 -0.2374493 708.58602914 -0.25362138 C712.6491846 -0.27089513 716.71165313 -0.25720183 720.77481079 -0.24050903 C721.94366727 -0.25044539 723.11252375 -0.26038175 724.31680012 -0.27061921 C734.85747179 -0.17875759 743.95927434 2.80867576 751.63908768 10.25726891 C758.67849087 18.86098392 761.09480523 27.06140544 761.0200386 37.99138451 C761.02705856 39.57857256 761.02705856 39.57857256 761.03422034 41.19782501 C761.04615369 44.73135893 761.03671927 48.26450383 761.02727127 51.79804039 C761.03133772 54.33631173 761.03668001 56.8745813 761.04320145 59.41284752 C761.05545375 65.58442403 761.05367018 71.75585732 761.04496352 77.92743569 C761.03817861 82.94529289 761.03727374 87.96311944 761.04053497 92.98097992 C761.04099467 93.69611606 761.04145437 94.41125219 761.041928 95.14805912 C761.04288721 96.60101827 761.04385985 98.05397742 761.04484577 99.50693656 C761.05339378 113.12113274 761.04357513 126.73526824 761.02744468 140.34945447 C761.0140449 152.02000959 761.01636791 163.69047517 761.03020096 175.36102867 C761.04627217 188.92613402 761.05256683 202.49118621 761.04336417 216.05629975 C761.04240856 217.50411386 761.04146545 218.95192799 761.04053497 220.39974213 C761.04007215 221.11202037 761.03960932 221.82429862 761.03913247 222.55816106 C761.03654699 227.56694589 761.04090409 232.57569688 761.04797363 237.58447647 C761.05728864 244.33227611 761.05061279 251.07988102 761.03329086 257.82767296 C761.02932834 260.3023971 761.03045603 262.77713549 761.03707886 265.25185394 C761.04529346 268.63348356 761.03497301 272.01457425 761.0200386 275.39616966 C761.03007685 276.86029428 761.03007685 276.86029428 761.04031789 278.35399717 C760.94986731 288.93516561 757.91013189 296.57793428 750.63908768 304.25726891 C741.53105823 311.8946511 731.31743873 318.19208141 721.38246536 324.6756649 C716.52424921 327.8469821 711.6749146 331.03179727 706.82658768 334.21820641 C705.32786369 335.2030854 705.32786369 335.2030854 703.79886246 336.20786095 C691.0112519 344.6257601 678.33595529 353.21026592 665.66423416 361.80121422 C658.36607415 366.74570988 651.06836134 371.65968201 643.60368729 376.35053062 C636.96908894 380.61769797 630.47255887 385.0975334 623.94365311 389.52396202 C602.97814661 403.73235568 581.86528886 417.70860146 560.69668961 431.6119442 C553.91652753 436.06796624 547.16075158 440.55958278 540.41630936 445.06943321 C537.38831331 447.09324478 534.35727604 449.11249239 531.32658768 451.13226891 C530.07543247 451.96631084 528.82429341 452.80037698 527.57316971 453.63446617 C526.93494278 454.05994743 526.29671585 454.4854287 525.63914871 454.92380333 C523.54513305 456.31990962 521.45123298 457.71618915 519.3573494 459.11249352 C512.46612179 463.7076404 505.5740549 468.30150565 498.67801285 472.88942528 C494.70612245 475.53199916 490.73493229 478.17562389 486.76408768 480.81976891 C485.55201141 481.62684792 485.55201141 481.62684792 484.31544876 482.45023155 C472.22606569 490.50310021 460.17604725 498.61265556 448.14317703 506.74967003 C431.79599003 517.8039182 415.37548904 528.73697681 398.88020706 539.56894493 C385.2324707 548.53375732 371.66055302 557.60321467 358.13908768 566.75726891 C342.7946661 577.1454675 327.36805858 587.39888575 311.87883377 597.56976891 C298.2315643 606.53431753 284.6601098 615.60351473 271.13908768 624.75726891 C255.79566972 635.14478805 240.37014569 645.3976551 224.88185501 655.56775475 C211.17072424 664.5740783 197.53637911 673.68658777 183.95158768 682.88226891 C169.99169726 692.3308241 155.97963482 701.69211532 141.88908768 710.94476891 C128.65543821 719.63627597 115.43745572 728.3495781 102.26408768 737.13226891 C101.47366074 737.65919334 100.6832338 738.18611778 99.86885452 738.72900963 C87.58710805 746.92059263 75.34607397 755.17175823 63.11384964 763.43704796 C55.29453777 768.71878411 47.46885969 773.99105376 39.63908768 779.25726891 C38.91842117 779.74227867 38.19775467 780.22728844 37.45524979 780.72699547 C33.17278339 783.60720263 28.87886099 786.46923152 24.57658768 789.31976891 C23.58554031 789.98565025 22.59449295 790.6515316 21.57341385 791.33759117 C9.45166721 799.31060487 -1.02604781 802.39940225 -15.48200607 799.66742516 C-23.69675611 797.13891344 -30.44298507 791.83875009 -35.06013107 784.58930016 C-37.9451446 778.9928699 -39.48469379 774.29456342 -39.48971349 767.98219573 C-39.49298568 766.90500616 -39.49625788 765.82781659 -39.49962923 764.71798491 C-39.49814561 763.5329054 -39.49666198 762.34782588 -39.4951334 761.12683487 C-39.49748563 759.86400031 -39.49983786 758.60116576 -39.50226137 757.30006349 C-39.50867153 753.77691298 -39.50882218 750.25378525 -39.50798396 746.73063002 C-39.50815326 742.90437585 -39.51405714 739.0781299 -39.51922482 735.25187981 C-39.52856016 727.65491111 -39.53247444 720.05794823 -39.53474379 712.46097451 C-39.53770342 703.36460558 -39.54639938 694.26824439 -39.55515807 685.17187952 C-39.57601281 663.18420057 -39.58647369 641.19652027 -39.59528768 619.20883373 C-39.59949252 608.81018184 -39.60471471 598.41153053 -39.60997221 588.01287912 C-39.62786284 552.42750348 -39.64285974 516.84212767 -39.6502924 481.2567482 C-39.65076716 479.02225375 -39.65124304 476.78775931 -39.65172006 474.55326486 C-39.65195643 473.44514112 -39.65219281 472.33701738 -39.65243635 471.19531414 C-39.65363757 465.58087458 -39.65485301 459.96643502 -39.65607834 454.35199547 C-39.65631849 453.23778711 -39.65655864 452.12357876 -39.65680607 450.97560651 C-39.66470093 414.84136915 -39.6881364 378.70716458 -39.72063428 342.57294155 C-39.75491841 304.38298985 -39.7746422 266.19305736 -39.77793664 228.00309002 C-39.77835419 223.81214213 -39.77883375 219.62119424 -39.77935982 215.43024635 C-39.77948301 214.39829318 -39.7796062 213.36634 -39.77973313 212.30311551 C-39.78206686 195.68359603 -39.79773645 179.0641146 -39.81820166 162.44460868 C-39.83843972 145.74485914 -39.84394653 129.04515538 -39.83443103 112.34539585 C-39.82920828 102.42048479 -39.83513005 92.49572598 -39.8569657 82.57083679 C-39.87044821 75.94255189 -39.8694194 69.3143721 -39.85656374 62.68608622 C-39.84965012 58.90849831 -39.84905521 55.131202 -39.86612383 51.35363983 C-39.88436634 47.28312027 -39.87163087 43.21327958 -39.85589695 39.14274979 C-39.86611916 37.97171727 -39.87634136 36.80068475 -39.88687333 35.5941664 C-39.79643055 24.90965321 -36.95639084 17.01304794 -29.57575607 9.23383141 C-26.17207958 6.19633527 -22.5453112 4.04750141 -18.36091232 2.25726891 C-17.57896649 1.91251404 -16.79702066 1.56775918 -15.9913795 1.2125572 C-10.66156793 -0.18988121 -5.48909123 -0.01915062 0 0 Z M30.63908768 70.25726891 C30.63908768 81.47726891 30.63908768 92.69726891 30.63908768 104.25726891 C248.43908768 104.25726891 466.23908768 104.25726891 690.63908768 104.25726891 C690.63908768 93.03726891 690.63908768 81.81726891 690.63908768 70.25726891 C472.83908768 70.25726891 255.03908768 70.25726891 30.63908768 70.25726891 Z M134.63908768 174.25726891 C134.63908768 324.73726891 134.63908768 475.21726891 134.63908768 630.25726891 C138.26908768 627.94726891 141.89908768 625.63726891 145.63908768 623.25726891 C147.62359971 622.43083098 149.60811174 621.60439306 151.65276051 620.75291157 C158.64231623 617.67122389 166.37394175 613.92284869 169.38003859 606.40400353 C172.63161599 594.72324847 171.59112173 581.81011567 171.30859697 569.82462704 C171.20875645 564.50993904 171.24291828 559.19584631 171.26034927 553.88048363 C171.27237883 544.68417939 171.20056364 535.49164361 171.07087898 526.29628754 C170.88351181 513.0022309 170.82401329 499.70998624 170.79515518 486.41475242 C170.74488374 464.84242733 170.5920099 443.27210874 170.3741951 421.70087242 C170.16289923 400.75338303 170.00018545 379.80643967 169.90251541 358.85809898 C169.89345145 356.91947614 169.89345145 356.91947614 169.88420438 354.9416892 C169.85418732 348.45766522 169.82512233 341.97363739 169.7965306 335.48960698 C169.55830565 281.7440339 169.1470391 228.00091292 168.63908768 174.25726891 C157.41908768 174.25726891 146.19908768 174.25726891 134.63908768 174.25726891 Z M343.63908768 174.25726891 C343.63908768 278.53726891 343.63908768 382.81726891 343.63908768 490.25726891 C346.60908768 488.60726891 349.57908768 486.95726891 352.63908768 485.25726891 C354.25853543 484.43098192 354.25853543 484.43098192 355.91069931 483.58800226 C369.59226589 476.72358813 369.59226589 476.72358813 379.06855893 465.23297 C381.11081278 457.41448305 380.84698222 449.44178199 380.54072821 441.42851436 C380.43145132 437.83310057 380.46938721 434.23859881 380.48828506 430.64198875 C380.50131733 424.42931357 380.42376645 418.22326378 380.2823391 412.01225662 C380.07802825 403.03371302 380.01394667 394.05833096 379.98263931 385.07771523 C379.9280925 370.50481435 379.76220323 355.93543706 379.52507401 341.36444664 C379.29514499 327.22106977 379.1184151 313.07865422 379.01237869 298.93378258 C379.00581061 298.06007218 378.99924252 297.18636178 378.9924754 296.2861753 C378.95984644 291.90246514 378.92825446 287.51874823 378.89717782 283.13502681 C378.63853897 246.83985369 378.19175468 210.5490686 377.63908768 174.25726891 C366.41908768 174.25726891 355.19908768 174.25726891 343.63908768 174.25726891 Z M552.63908768 174.25726891 C552.63908768 232.66726891 552.63908768 291.07726891 552.63908768 351.25726891 C555.60908768 349.60726891 558.57908768 347.95726891 561.63908768 346.25726891 C563.72241166 345.26339389 565.80931891 344.27696922 567.90091324 343.30061913 C576.03062441 339.07753404 584.55097771 334.60489873 588.03739166 325.67622566 C590.31469132 316.11411415 589.59272924 305.96979586 589.17393613 296.23456264 C589.01606012 291.93683434 589.0028504 287.638519 588.97330093 283.33833885 C588.89603382 275.22100209 588.69157703 267.11223046 588.43956369 258.99864298 C588.15867804 249.75175941 588.02232686 240.50443343 587.89717782 231.25433624 C587.6368601 212.24949095 587.17907078 193.25636677 586.63908768 174.25726891 C575.41908768 174.25726891 564.19908768 174.25726891 552.63908768 174.25726891 Z " fill="#FFFFFF" transform="translate(39.36091232299805,-0.25726890563964844)"/>
</svg>
